<svg xmlns="http://www.w3.org/2000/svg" xmlns:xlink="http://www.w3.org/1999/xlink" width="1080" zoomAndPan="magnify" viewBox="0 0 810 434.999989" height="580" preserveAspectRatio="xMidYMid meet" version="1.0"><defs><g/></defs><g fill="#000000" fill-opacity="1"><g transform="translate(43.500007, 258.443705)"><g><path d="M 92.078125 -138.78125 C 107.703125 -138.78125 120.375 -135.15625 130.09375 -127.90625 C 139.820312 -120.664062 146.273438 -109.925781 149.453125 -95.6875 L 123.328125 -92.828125 C 118.628906 -108.335938 108.398438 -116.09375 92.640625 -116.09375 C 82.859375 -116.09375 74.28125 -113.484375 66.90625 -108.265625 C 59.539062 -103.054688 53.820312 -95.84375 49.75 -86.625 C 45.6875 -77.414062 43.65625 -66.96875 43.65625 -55.28125 C 43.65625 -44.09375 46.128906 -35.609375 51.078125 -29.828125 C 56.035156 -24.046875 63.726562 -21.15625 74.15625 -21.15625 C 80 -21.15625 86.035156 -21.914062 92.265625 -23.4375 C 98.492188 -24.96875 104.210938 -27.066406 109.421875 -29.734375 L 113.609375 -50.140625 L 78.734375 -50.140625 L 83.5 -73.015625 L 144.5 -73.015625 L 132.296875 -14.296875 C 124.796875 -9.460938 115.863281 -5.488281 105.5 -2.375 C 95.144531 0.726562 84.566406 2.28125 73.765625 2.28125 C 54.066406 2.28125 39.644531 -2.925781 30.5 -13.34375 C 21.351562 -23.757812 16.78125 -37.546875 16.78125 -54.703125 C 16.78125 -69.453125 19.859375 -83.273438 26.015625 -96.171875 C 32.179688 -109.066406 40.984375 -119.390625 52.421875 -127.140625 C 63.859375 -134.898438 77.078125 -138.78125 92.078125 -138.78125 Z M 92.078125 -138.78125 "/></g></g></g><g fill="#000000" fill-opacity="1"><g transform="translate(191.796936, 258.443705)"><g><path d="M 66.53125 -101.03125 C 79.238281 -101.03125 89.019531 -97.1875 95.875 -89.5 C 102.738281 -81.8125 106.171875 -71.359375 106.171875 -58.140625 C 106.171875 -51.910156 105.535156 -46.253906 104.265625 -41.171875 L 37.359375 -41.171875 C 37.359375 -33.546875 39.039062 -27.570312 42.40625 -23.25 C 45.78125 -18.9375 50.453125 -16.78125 56.421875 -16.78125 C 65.316406 -16.78125 72.242188 -21.351562 77.203125 -30.5 L 101.21875 -26.5 C 96.644531 -17.09375 90.515625 -9.941406 82.828125 -5.046875 C 75.140625 -0.160156 66.398438 2.28125 56.609375 2.28125 C 47.585938 2.28125 39.644531 0.34375 32.78125 -3.53125 C 25.925781 -7.40625 20.65625 -12.804688 16.96875 -19.734375 C 13.28125 -26.660156 11.4375 -34.503906 11.4375 -43.265625 C 11.4375 -53.816406 13.660156 -63.476562 18.109375 -72.25 C 22.554688 -81.019531 28.972656 -88.007812 37.359375 -93.21875 C 45.742188 -98.425781 55.46875 -101.03125 66.53125 -101.03125 Z M 39.84375 -57.375 L 81.78125 -57.375 C 81.78125 -66.144531 80.222656 -72.4375 77.109375 -76.25 C 73.992188 -80.0625 69.453125 -81.96875 63.484375 -81.96875 C 57.503906 -81.96875 52.445312 -79.710938 48.3125 -75.203125 C 44.1875 -70.691406 41.363281 -64.75 39.84375 -57.375 Z M 39.84375 -57.375 "/></g></g></g><g fill="#000000" fill-opacity="1"><g transform="translate(297.777769, 258.443705)"><g><path d="M 66.53125 -101.03125 C 79.238281 -101.03125 89.019531 -97.1875 95.875 -89.5 C 102.738281 -81.8125 106.171875 -71.359375 106.171875 -58.140625 C 106.171875 -51.910156 105.535156 -46.253906 104.265625 -41.171875 L 37.359375 -41.171875 C 37.359375 -33.546875 39.039062 -27.570312 42.40625 -23.25 C 45.78125 -18.9375 50.453125 -16.78125 56.421875 -16.78125 C 65.316406 -16.78125 72.242188 -21.351562 77.203125 -30.5 L 101.21875 -26.5 C 96.644531 -17.09375 90.515625 -9.941406 82.828125 -5.046875 C 75.140625 -0.160156 66.398438 2.28125 56.609375 2.28125 C 47.585938 2.28125 39.644531 0.34375 32.78125 -3.53125 C 25.925781 -7.40625 20.65625 -12.804688 16.96875 -19.734375 C 13.28125 -26.660156 11.4375 -34.503906 11.4375 -43.265625 C 11.4375 -53.816406 13.660156 -63.476562 18.109375 -72.25 C 22.554688 -81.019531 28.972656 -88.007812 37.359375 -93.21875 C 45.742188 -98.425781 55.46875 -101.03125 66.53125 -101.03125 Z M 39.84375 -57.375 L 81.78125 -57.375 C 81.78125 -66.144531 80.222656 -72.4375 77.109375 -76.25 C 73.992188 -80.0625 69.453125 -81.96875 63.484375 -81.96875 C 57.503906 -81.96875 52.445312 -79.710938 48.3125 -75.203125 C 44.1875 -70.691406 41.363281 -64.75 39.84375 -57.375 Z M 39.84375 -57.375 "/></g></g></g><g fill="#000000" fill-opacity="1"><g transform="translate(403.758602, 258.443705)"><g><path d="M 48.03125 -65.390625 L 82.734375 -98.75 L 117.609375 -98.75 L 77.78125 -62.90625 L 98.9375 0 L 72.25 0 L 58.515625 -45.75 L 40.609375 -29.734375 L 34.3125 0 L 7.625 0 L 36.21875 -136.484375 L 62.90625 -136.484375 Z M 48.03125 -65.390625 "/></g></g></g><g fill="#000000" fill-opacity="1"><g transform="translate(509.739435, 258.443705)"><g/></g></g><g fill="#000000" fill-opacity="1"><g transform="translate(562.729821, 258.443705)"><g><path d="M 128.671875 0 L 102.171875 0 L 97.59375 -30.125 L 43.46875 -30.125 L 27.0625 0 L -1.71875 0 L 75.484375 -136.484375 L 106.5625 -136.484375 Z M 56.234375 -53 L 94.171875 -53 L 86.359375 -107.890625 Z M 56.234375 -53 "/></g></g></g><g fill="#000000" fill-opacity="1"><g transform="translate(700.352398, 258.443705)"><g><path d="M 34.3125 0 L 6.296875 0 L 34.890625 -136.484375 L 62.90625 -136.484375 Z M 34.3125 0 "/></g></g></g></svg>
