<svg xmlns="http://www.w3.org/2000/svg" xmlns:xlink="http://www.w3.org/1999/xlink" width="1080" zoomAndPan="magnify" viewBox="0 0 810 809.999993" height="1080" preserveAspectRatio="xMidYMid meet" version="1.0"><defs><g/></defs><g fill="#000000" fill-opacity="1"><g transform="translate(138.846676, 423.527158)"><g><path d="M 97.578125 -99.828125 C 102.566406 -95.234375 105.0625 -88.796875 105.0625 -80.515625 C 105.0625 -73.628906 103.660156 -67.316406 100.859375 -61.578125 C 98.066406 -55.847656 94.226562 -51.4375 89.34375 -48.34375 C 84.550781 -45.25 79.859375 -43.203125 75.265625 -42.203125 C 70.679688 -41.203125 64.148438 -40.703125 55.671875 -40.703125 L 36.671875 -40.703125 L 28.140625 0 L 6.140625 0 L 28.578125 -107.15625 L 73.1875 -107.15625 C 79.570312 -107.15625 84.554688 -106.53125 88.140625 -105.28125 C 91.734375 -104.03125 94.878906 -102.210938 97.578125 -99.828125 Z M 52.375 -58.671875 C 56.96875 -58.671875 60.6875 -58.84375 63.53125 -59.1875 C 66.375 -59.539062 68.992188 -60.210938 71.390625 -61.203125 C 75.179688 -62.703125 78.097656 -65.046875 80.140625 -68.234375 C 82.179688 -71.429688 83.203125 -75.023438 83.203125 -79.015625 C 83.203125 -82.609375 81.929688 -85.203125 79.390625 -86.796875 C 76.847656 -88.390625 72.832031 -89.1875 67.34375 -89.1875 L 46.84375 -89.1875 L 40.40625 -58.671875 Z M 52.375 -58.671875 "/></g></g></g><g fill="#000000" fill-opacity="1"><g transform="translate(238.659677, 423.527158)"><g><path d="M 50.734375 -79.3125 C 60.210938 -79.3125 67.445312 -77.441406 72.4375 -73.703125 C 77.425781 -69.960938 79.921875 -64.953125 79.921875 -58.671875 C 79.921875 -55.578125 79.59375 -52.15625 78.9375 -48.40625 C 78.289062 -44.664062 77.367188 -40.253906 76.171875 -35.171875 C 74.679688 -28.390625 73.632812 -23.375 73.03125 -20.125 C 72.4375 -16.882812 72.140625 -13.816406 72.140625 -10.921875 C 72.140625 -7.535156 72.6875 -3.894531 73.78125 0 L 53.421875 0 C 52.523438 -3.09375 52.03125 -6.035156 51.9375 -8.828125 C 48.238281 -4.835938 44.394531 -2.066406 40.40625 -0.515625 C 36.414062 1.023438 32.820312 1.796875 29.625 1.796875 C 22.945312 1.796875 17.507812 -0.296875 13.3125 -4.484375 C 9.125 -8.679688 7.03125 -14.171875 7.03125 -20.953125 C 7.03125 -28.429688 9.097656 -34.039062 13.234375 -37.78125 C 17.378906 -41.53125 21.5 -43.828125 25.59375 -44.671875 C 29.6875 -45.515625 34.925781 -46.238281 41.3125 -46.84375 C 45.894531 -47.238281 49.382812 -47.609375 51.78125 -47.953125 C 54.175781 -48.304688 56.472656 -48.832031 58.671875 -49.53125 C 58.765625 -49.832031 59.035156 -50.753906 59.484375 -52.296875 C 59.929688 -53.847656 60.15625 -55.320312 60.15625 -56.71875 C 60.15625 -59.113281 59.132812 -60.984375 57.09375 -62.328125 C 55.050781 -63.679688 52.429688 -64.359375 49.234375 -64.359375 C 45.640625 -64.359375 42.742188 -63.65625 40.546875 -62.25 C 38.359375 -60.851562 36.816406 -58.660156 35.921875 -55.671875 L 15.421875 -57.46875 C 17.710938 -64.550781 21.875 -69.960938 27.90625 -73.703125 C 33.945312 -77.441406 41.554688 -79.3125 50.734375 -79.3125 Z M 49.09375 -35.015625 C 44.5 -34.316406 40.726562 -33.644531 37.78125 -33 C 34.84375 -32.351562 32.273438 -31.207031 30.078125 -29.5625 C 27.878906 -27.914062 26.78125 -25.691406 26.78125 -22.890625 C 26.78125 -20.097656 27.65625 -17.925781 29.40625 -16.375 C 31.15625 -14.832031 33.472656 -14.0625 36.359375 -14.0625 C 42.847656 -14.0625 47.335938 -15.929688 49.828125 -19.671875 C 52.328125 -23.421875 54.023438 -27.585938 54.921875 -32.171875 L 55.828125 -36.21875 C 54.429688 -35.71875 52.1875 -35.316406 49.09375 -35.015625 Z M 49.09375 -35.015625 "/></g></g></g><g fill="#000000" fill-opacity="1"><g transform="translate(321.862116, 423.527158)"><g><path d="M 63.609375 -79.3125 C 71.984375 -79.3125 78.539062 -76.394531 83.28125 -70.5625 C 88.019531 -64.726562 90.390625 -56.625 90.390625 -46.25 C 90.390625 -37.5625 88.664062 -29.550781 85.21875 -22.21875 C 81.78125 -14.882812 77.09375 -9.046875 71.15625 -4.703125 C 65.21875 -0.367188 58.660156 1.796875 51.484375 1.796875 C 45.992188 1.796875 41.300781 0.597656 37.40625 -1.796875 C 33.519531 -4.191406 30.53125 -7.082031 28.4375 -10.46875 L 28.28125 -10.46875 L 19.90625 29.625 L -1.046875 29.625 L 21.40625 -77.515625 L 41.15625 -77.515625 L 39.65625 -69.734375 C 43.75 -73.023438 47.640625 -75.441406 51.328125 -76.984375 C 55.023438 -78.535156 59.117188 -79.3125 63.609375 -79.3125 Z M 33.96875 -33.078125 C 33.96875 -26.984375 35.414062 -22.289062 38.3125 -19 C 41.207031 -15.707031 44.75 -14.0625 48.9375 -14.0625 C 53.03125 -14.0625 56.695312 -15.65625 59.9375 -18.84375 C 63.175781 -22.039062 65.671875 -26.179688 67.421875 -31.265625 C 69.171875 -36.359375 70.046875 -41.550781 70.046875 -46.84375 C 70.046875 -52.132812 68.695312 -56.375 66 -59.5625 C 63.300781 -62.757812 59.707031 -64.359375 55.21875 -64.359375 C 50.832031 -64.359375 47.015625 -62.734375 43.765625 -59.484375 C 40.523438 -56.242188 38.082031 -52.175781 36.4375 -47.28125 C 34.789062 -42.394531 33.96875 -37.660156 33.96875 -33.078125 Z M 33.96875 -33.078125 "/></g></g></g><g fill="#000000" fill-opacity="1"><g transform="translate(413.29502, 423.527158)"><g><path d="M 50.734375 -79.3125 C 60.210938 -79.3125 67.445312 -77.441406 72.4375 -73.703125 C 77.425781 -69.960938 79.921875 -64.953125 79.921875 -58.671875 C 79.921875 -55.578125 79.59375 -52.15625 78.9375 -48.40625 C 78.289062 -44.664062 77.367188 -40.253906 76.171875 -35.171875 C 74.679688 -28.390625 73.632812 -23.375 73.03125 -20.125 C 72.4375 -16.882812 72.140625 -13.816406 72.140625 -10.921875 C 72.140625 -7.535156 72.6875 -3.894531 73.78125 0 L 53.421875 0 C 52.523438 -3.09375 52.03125 -6.035156 51.9375 -8.828125 C 48.238281 -4.835938 44.394531 -2.066406 40.40625 -0.515625 C 36.414062 1.023438 32.820312 1.796875 29.625 1.796875 C 22.945312 1.796875 17.507812 -0.296875 13.3125 -4.484375 C 9.125 -8.679688 7.03125 -14.171875 7.03125 -20.953125 C 7.03125 -28.429688 9.097656 -34.039062 13.234375 -37.78125 C 17.378906 -41.53125 21.5 -43.828125 25.59375 -44.671875 C 29.6875 -45.515625 34.925781 -46.238281 41.3125 -46.84375 C 45.894531 -47.238281 49.382812 -47.609375 51.78125 -47.953125 C 54.175781 -48.304688 56.472656 -48.832031 58.671875 -49.53125 C 58.765625 -49.832031 59.035156 -50.753906 59.484375 -52.296875 C 59.929688 -53.847656 60.15625 -55.320312 60.15625 -56.71875 C 60.15625 -59.113281 59.132812 -60.984375 57.09375 -62.328125 C 55.050781 -63.679688 52.429688 -64.359375 49.234375 -64.359375 C 45.640625 -64.359375 42.742188 -63.65625 40.546875 -62.25 C 38.359375 -60.851562 36.816406 -58.660156 35.921875 -55.671875 L 15.421875 -57.46875 C 17.710938 -64.550781 21.875 -69.960938 27.90625 -73.703125 C 33.945312 -77.441406 41.554688 -79.3125 50.734375 -79.3125 Z M 49.09375 -35.015625 C 44.5 -34.316406 40.726562 -33.644531 37.78125 -33 C 34.84375 -32.351562 32.273438 -31.207031 30.078125 -29.5625 C 27.878906 -27.914062 26.78125 -25.691406 26.78125 -22.890625 C 26.78125 -20.097656 27.65625 -17.925781 29.40625 -16.375 C 31.15625 -14.832031 33.472656 -14.0625 36.359375 -14.0625 C 42.847656 -14.0625 47.335938 -15.929688 49.828125 -19.671875 C 52.328125 -23.421875 54.023438 -27.585938 54.921875 -32.171875 L 55.828125 -36.21875 C 54.429688 -35.71875 52.1875 -35.316406 49.09375 -35.015625 Z M 49.09375 -35.015625 "/></g></g></g><g fill="#000000" fill-opacity="1"><g transform="translate(496.497459, 423.527158)"><g><path d="M 33.671875 -77.515625 L 38.90625 -39.515625 C 39.507812 -35.117188 40.257812 -27.984375 41.15625 -18.109375 C 44.144531 -26.785156 48.234375 -35.863281 53.421875 -45.34375 L 70.9375 -77.515625 L 93.09375 -77.515625 L 44.453125 8.984375 C 41.453125 14.367188 38.851562 18.53125 36.65625 21.46875 C 34.46875 24.414062 31.75 26.8125 28.5 28.65625 C 25.257812 30.5 21.25 31.421875 16.46875 31.421875 C 11.375 31.421875 6.285156 30.675781 1.203125 29.1875 L 3 13.46875 C 5.382812 14.269531 7.925781 14.671875 10.625 14.671875 C 16.90625 14.671875 22.144531 9.78125 26.34375 0 L 12.71875 -77.515625 Z M 33.671875 -77.515625 "/></g></g></g><g fill="#000000" fill-opacity="1"><g transform="translate(579.699875, 423.527158)"><g><path d="M 53.421875 -79.3125 C 64.796875 -79.3125 73.597656 -76.191406 79.828125 -69.953125 C 86.066406 -63.722656 89.1875 -55.125 89.1875 -44.15625 C 89.1875 -36.070312 87.390625 -28.535156 83.796875 -21.546875 C 80.210938 -14.566406 75.078125 -8.957031 68.390625 -4.71875 C 61.703125 -0.476562 53.867188 1.640625 44.890625 1.640625 C 37.710938 1.640625 31.378906 0.21875 25.890625 -2.625 C 20.398438 -5.46875 16.179688 -9.429688 13.234375 -14.515625 C 10.296875 -19.609375 8.828125 -25.492188 8.828125 -32.171875 C 8.828125 -40.953125 10.546875 -48.910156 13.984375 -56.046875 C 17.429688 -63.179688 22.492188 -68.84375 29.171875 -73.03125 C 35.859375 -77.21875 43.941406 -79.3125 53.421875 -79.3125 Z M 29.9375 -31.578125 C 29.9375 -27.191406 31.359375 -23.203125 34.203125 -19.609375 C 37.046875 -16.015625 41.160156 -14.21875 46.546875 -14.21875 C 50.535156 -14.21875 54.25 -15.738281 57.6875 -18.78125 C 61.132812 -21.820312 63.851562 -25.863281 65.84375 -30.90625 C 67.84375 -35.945312 68.84375 -41.304688 68.84375 -46.984375 C 68.84375 -51.878906 67.421875 -55.847656 64.578125 -58.890625 C 61.734375 -61.929688 57.664062 -63.453125 52.375 -63.453125 C 48.1875 -63.453125 44.367188 -62.003906 40.921875 -59.109375 C 37.484375 -56.222656 34.789062 -52.332031 32.84375 -47.4375 C 30.90625 -42.550781 29.9375 -37.265625 29.9375 -31.578125 Z M 29.9375 -31.578125 "/></g></g></g></svg>
